<svg width="46" height="38" viewBox="0 0 46 38" fill="none" xmlns="http://www.w3.org/2000/svg">
<path d="M34.5594 26.3102L42.7685 33.0901L40.0564 35.3305L31.8493 28.5491C28.7955 30.5713 24.9972 31.6713 21.0833 31.6667C11.5613 31.6667 3.83334 25.2827 3.83334 17.4167C3.83334 9.55066 11.5613 3.16666 21.0833 3.16666C30.6053 3.16666 38.3333 9.55066 38.3333 17.4167C38.3389 20.6498 37.0074 23.7876 34.5594 26.3102ZM30.7146 25.1354C33.1471 23.069 34.5055 20.299 34.5 17.4167C34.5 11.2939 28.4951 6.33332 21.0833 6.33332C13.6716 6.33332 7.66668 11.2939 7.66668 17.4167C7.66668 23.5394 13.6716 28.5 21.0833 28.5C24.5725 28.5045 27.9256 27.3823 30.4271 25.3729L30.7146 25.1354Z" fill="white"/>
</svg>
